<svg width="16" height="16" version="1.0" viewBox="0 0 16 16" xmlns="http://www.w3.org/2000/svg"><g transform="matrix(.009658 0 0 -.0097201 .9585 15.047)"><path d="m585 1435c-33-7-86-23-117-35l-58-21v-158l33 19c78 46 184 72 297 72 261 1 510-203 564-462 9-43 14-145 15-299 1-129 3-237 5-238 2-2 18 21 35 52 234 415 16 936-444 1060-79 22-253 27-330 10z" fill="#b3b3b3"/><path d="m284 1297c-77-61-72-34-71-341 0-306 7-358 57-455 29-54 53-91 61-91 2 0 4 87 4 193 1 157 4 202 19 247 37 113 127 207 237 248 151 56 320 15 426-103 74-81 97-141 97-260 1-92-1-105-31-167-61-129-183-214-320-225-37-2-87 0-110 5-39 9-42 8-45-12-2-11-1-40 0-63 4-41 5-42 49-49 186-28 393 64 497 220 195 293 52 683-286 781-115 33-258 21-363-32-56-28-155-101-155-114 0-5-4-9-8-9s-8 57-8 126c1 69-1 127-4 129-4 2-24-11-46-28z" fill="#b3b3b3"/><path d="m118 1117c-34-51-76-147-94-212-28-103-26-275 5-375 82-267 270-445 542-513 36-9 99-13 175-12 97 2 134 7 199 28 87 29 210 97 264 148l35 32 1 110v109l-20-28c-137-193-359-294-575-262-263 39-465 237-506 498-4 25-7 147-6 273 0 125-1 227-3 227-1 0-9-10-17-23z" fill="#b3b3b3"/><path d="m687 1048c-112-15-216-97-256-202-17-45-19-79-20-286l-2-235 54-33c29-17 56-32 59-32 4 0 8 121 10 269l3 269 30 44c81 116 248 116 325 0 16-25 31-55 31-66 7-95-18-154-84-201-36-26-51-30-107-30-45 0-74 5-92 17l-26 17-4-60c-1-34-1-64 2-69 14-20 54-29 126-27 61 2 90 8 129 27 198 99 240 355 85 510-70 70-164 101-263 88z" fill="#b3b3b3"/><path d="m674 840c-76-30-85-161-16-206 77-51 177-6 189 85s-82 158-173 121z" fill="#0cf"/></g></svg>
